# xmcd
#
# Track frame offsets: 
#        150
#        29090
#        57582
#        147907
#        165687
#        209134
#        233750
#
# Disc length: 3433 seconds
#
# Revision: 1
# Processed by: cddbd v1.5.2PL0 Copyright (c) Steve Scherf et al.
# Submitted via: ExactAudioCopy v0.99pb1
#
DISCID=6c0d6707
DTITLE=Norman Friedenberger (N-Force) - Mind Odyssey
DYEAR=1996
DGENRE=New Age
TTITLE0=Dusk Over Paradise
TTITLE1=Behind The Horizon
TTITLE2=Mind Odyssey
TTITLE3=Daydream
TTITLE4=Two Virtual Adventures
TTITLE5=Mystic Thoughts
TTITLE6=Atmosfear
EXTD=YEAR: 1996
EXTT0=
EXTT1=
EXTT2=
EXTT3=
EXTT4=
EXTT5=
EXTT6=
PLAYORDER=
